<?xml version="1.0" encoding="UTF-8"?>
<svg xmlns="http://www.w3.org/2000/svg" xmlns:xlink="http://www.w3.org/1999/xlink" width="30px" height="30px" viewBox="0 0 30 30" version="1.1">
<g id="surface1">
<path style=" stroke:none;fill-rule:nonzero;fill:rgb(0%,0%,0%);fill-opacity:1;" d="M 1.070312 7.734375 L 28.929688 7.734375 C 29.519531 7.734375 30 7.316406 30 6.796875 L 30 4.453125 C 30 3.933594 29.519531 3.515625 28.929688 3.515625 L 1.070312 3.515625 C 0.480469 3.515625 0 3.933594 0 4.453125 L 0 6.796875 C 0 7.316406 0.480469 7.734375 1.070312 7.734375 Z M 1.070312 17.109375 L 28.929688 17.109375 C 29.519531 17.109375 30 16.691406 30 16.171875 L 30 13.828125 C 30 13.308594 29.519531 12.890625 28.929688 12.890625 L 1.070312 12.890625 C 0.480469 12.890625 0 13.308594 0 13.828125 L 0 16.171875 C 0 16.691406 0.480469 17.109375 1.070312 17.109375 Z M 1.070312 26.484375 L 28.929688 26.484375 C 29.519531 26.484375 30 26.066406 30 25.546875 L 30 23.203125 C 30 22.683594 29.519531 22.265625 28.929688 22.265625 L 1.070312 22.265625 C 0.480469 22.265625 0 22.683594 0 23.203125 L 0 25.546875 C 0 26.066406 0.480469 26.484375 1.070312 26.484375 Z M 1.070312 26.484375 "/>
</g>
</svg>
